<svg width="710" height="689" viewBox="0 0 710 689" fill="none" xmlns="http://www.w3.org/2000/svg">
<g clip-path="url(#clip0_26_1918)">
<g filter="url(#filter0_d_26_1918)">
<path d="M260.711 324.351L257.288 328.767L243.678 346.429L233.654 368.907C233.654 368.988 225.83 392.109 225.83 392.109L225.749 392.35L227.867 437.548L240.255 447.824L244.9 454.889L245.064 455.21L252.724 458.421L260.385 453.524C260.385 453.524 265.03 443.248 265.193 443.007C265.438 443.007 273.506 442.525 273.669 442.525C273.832 442.525 282.878 443.087 282.878 443.087L285.649 432.33L290.458 423.418C290.458 423.418 297.141 417.317 297.304 417.237C297.467 417.237 303.253 417.237 303.253 417.237L308.632 403.91L310.832 395.721C310.832 395.721 301.867 389.459 301.704 389.379C301.704 389.138 300.074 373.082 300.074 373.082C300.074 373.082 301.623 364.492 301.623 364.251C302.112 363.93 309.61 359.514 309.61 359.514L315.64 354.136L312.381 342.334L306.35 336.393L296 334.226L282.634 330.533L260.956 323.629L260.711 324.351Z" fill="white"/>
<path d="M340.742 318.089C340.742 318.089 333.163 323.227 333.081 323.308C333 323.388 314.418 333.263 314.337 333.343C314.174 333.423 306.024 336.634 306.024 336.634C306.024 336.634 312.055 342.575 312.136 342.655C312.136 342.816 315.233 353.815 315.315 354.055C315.07 354.216 309.528 359.274 309.528 359.274L301.867 363.769L301.378 364.01L299.749 373.162L301.378 389.7C301.378 389.7 310.18 395.802 310.425 396.042C310.343 396.283 308.306 403.669 308.306 403.83C308.224 403.99 302.927 417.156 302.927 417.156L314.989 423.659L322.568 428.476L327.539 424.141L333.896 420.528C333.978 420.528 338.297 417.638 338.297 417.638L338.949 417.237L337.889 409.69C337.889 409.69 339.356 403.428 339.438 403.107C339.764 403.107 345.469 403.107 345.632 403.107C345.795 403.188 352.559 408.326 352.559 408.326L357.204 413.383L357.449 413.624L366.658 416.273L372.2 415.711C372.2 415.711 375.378 403.83 375.46 403.589C375.786 403.509 383.284 402.545 383.284 402.545C383.365 402.545 390.781 401.1 390.781 401.1L391.596 400.94C391.596 400.94 392.656 395.159 392.656 394.999C392.9 394.678 399.094 388.095 399.094 388.095L399.665 377.498C399.665 377.417 399.176 366.178 399.176 366.178V365.616L391.515 360.237C391.515 360.237 378.475 359.193 378.149 359.193C377.823 358.471 374.482 350.844 374.482 350.844L369.592 343.298C369.592 343.298 358.916 342.736 358.834 342.736C358.753 342.655 351.011 337.598 350.929 337.517C350.848 337.357 347.751 329.168 347.751 329.168L342.209 317.206L340.742 318.089Z" fill="white"/>
<path d="M346.773 187.391C345.387 187.953 343.757 188.194 342.29 188.435C340.66 188.676 339.193 188.836 338.297 189.479C336.341 190.763 331.533 194.296 330.555 195.018C330.473 195.018 330.473 195.098 330.392 195.098C330.31 195.018 327.132 189.398 327.132 189.398L326.806 188.836L317.026 188.114L316.863 188.194C314.174 188.917 300.645 193.011 298.119 200.558C295.185 209.228 294.614 217.015 294.614 218.621C294.614 219.905 291.762 230.262 287.524 244.391C285.731 246.8 276.766 258.681 271.387 264.221L270.817 264.783L275.951 275.54L278.07 291.677C278.07 291.677 278.07 301.953 278.07 302.113C277.989 302.274 261.037 324.11 261.037 324.11L282.879 331.095L296.244 334.788C296.326 334.788 306.187 336.875 306.187 336.875L306.513 336.955L314.581 333.744L333.407 323.709L342.046 317.849L351.663 303.077L358.671 289.75L367.881 277.467L362.013 269.519L359.975 267.753C359.975 267.753 351.337 265.666 351.092 265.585C351.011 265.345 348.484 258.521 348.484 258.521L347.832 248.084L347.18 236.925L343.839 230.342C343.839 230.342 338.704 220.788 338.541 220.628C338.623 220.467 341.801 212.198 341.801 212.198L346.936 206.498L347.099 206.338L349.136 200.397L348.321 186.589L346.773 187.391Z" fill="white"/>
<path d="M227.379 438.271C227.379 438.271 223.711 444.934 223.63 445.014L216.54 452.721L202.44 462.435L202.196 462.596L192.824 479.615L188.504 495.832L188.749 507.634L198.203 509.079C198.284 509.079 201.137 511.327 201.137 511.327L201.789 511.808L209.449 507.714L218.659 498.642L226.482 497.92C226.564 498 226.645 498 226.645 498L225.912 506.429C225.83 507.072 223.059 523.77 223.059 527.222C223.059 529.069 223.63 532.36 224.2 535.25C224.689 537.98 225.178 540.549 225.178 541.833C225.178 544.643 231.535 566.881 232.921 568.888C233.98 570.414 236.588 578.683 238.462 585.266L238.544 585.587L238.788 585.828C240.255 587.112 245.145 591.447 247.02 593.214C247.998 594.177 251.176 594.578 254.599 594.177C258.103 593.775 260.793 592.652 261.689 591.126C261.934 590.644 262.83 589.28 262.83 583.339C262.83 580.77 262.667 577.719 262.341 575.15C262.341 575.07 265.601 568.005 265.601 568.005L265.846 567.523L258.103 552.27C258.103 552.19 258.103 552.19 258.103 552.109L261.608 548.657C261.689 548.657 261.771 548.657 261.771 548.657C264.216 551.066 266.987 554.197 267.476 555.642C268.209 557.729 278.07 568.085 278.478 568.567L278.722 568.808L279.048 568.888C281.167 569.45 285.242 570.494 287.443 570.735L288.828 570.895V558.853L284.02 547.212L282.96 538.301L284.59 524.091C284.59 524.091 288.665 515.501 288.828 515.341C289.073 515.341 296.489 514.297 296.652 514.297C296.815 514.377 302.112 517.027 302.112 517.027L307.084 508.838L307.654 497.679L306.595 489.651C306.595 489.651 302.438 485.075 302.357 484.914C302.357 484.753 302.846 479.214 302.846 479.214L305.78 474.397L306.024 473.915L302.764 464.282L290.947 453.123L282.879 442.525L273.669 441.963L264.868 442.525C264.868 442.525 260.059 453.042 259.978 453.123C259.815 453.203 252.888 457.618 252.643 457.779C252.399 457.699 245.471 454.728 245.308 454.728C245.064 454.407 240.5 447.342 240.5 447.342L227.868 436.906L227.379 438.271Z" fill="white"/>
<path d="M269.92 265.505C268.942 266.388 268.453 266.629 268.29 266.709C264.786 268.074 243.026 274.818 242.13 275.059L202.033 278.511H201.87L201.707 278.591C201.218 278.752 189.156 283.488 187.119 286.137C185.407 288.385 179.458 292.56 176.524 294.487C176.443 294.487 176.443 294.487 176.361 294.487L170.738 288.947C169.434 287.181 166.5 284.612 163.81 286.218C160.388 288.225 155.579 293.604 155.335 293.844L144.006 295.289C143.925 295.289 126.729 298.661 126.729 298.661L126.321 298.742L111.489 316.725L111.407 316.965C111.163 317.768 110.266 320.739 110.266 324.271C110.266 326.679 110.674 328.767 111.489 330.613C114.178 336.554 118.009 337.437 118.416 337.517C123.143 344.662 126.321 350.603 126.321 352.289C126.321 354.537 124.529 359.515 123.469 362.084C123.469 362.164 123.388 362.164 123.388 362.164H114.912L107.903 361.441L107.658 362.405C107.414 363.368 107.251 364.331 107.251 365.214C107.251 366.9 107.74 368.426 108.718 369.55C111.57 373.002 118.498 377.176 118.579 377.176L120.78 386.971C120.78 387.051 114.667 398.451 114.667 398.451L114.423 398.852L115.808 405.114C115.808 405.195 115.808 405.195 115.727 405.275C115.564 405.355 112.141 407.362 109.94 405.997C108.636 405.114 106.925 400.94 105.621 395.481C105.621 395.4 110.348 386.81 110.348 386.81L110.592 386.409L107.821 377.498L99.1012 376.454L88.5065 386.328L82.1497 385.365C82.0682 385.365 72.859 384.402 72.859 384.402L72.044 384.321L67.3171 393.152C66.0947 394.357 63.6497 396.364 61.9383 396.364C59.9008 396.364 55.174 395.882 54.6035 395.882H54.522L48.7356 396.364C48.6541 396.364 42.6233 391.868 42.6233 391.868L42.3788 391.707L31.2951 390.664H31.2136C25.6718 391.226 10.7577 392.912 8.47576 394.437L8.06827 394.758V395.079L7.90528 396.765C7.90528 399.013 8.39427 403.348 9.20924 407.442L9.29074 407.764L9.45374 408.004C15.5661 415.39 18.5 419.565 18.826 420.287C18.826 420.287 19.3965 420.047 19.9669 419.886C19.478 420.127 18.9075 420.368 18.9075 420.368C20.2114 422.535 36.2665 435.701 37.2445 436.344L37.326 436.424L37.4889 436.504C39.8524 437.387 56.7224 435.942 56.8854 435.862C56.9669 435.862 56.9669 435.862 57.0484 435.942L61.2863 445.897C61.2863 445.978 61.2048 447.985 61.2048 447.985C61.2048 449.831 61.3678 452.239 62.3458 453.123C63.5682 454.407 68.2951 461.231 70.8215 465.165L69.4361 474.879L62.0198 482.746C61.9383 482.746 52.403 484.753 52.403 484.753L51.9955 484.834L47.2687 491.015L47.3502 491.497C47.5132 493.263 47.7577 496.715 47.7577 499.766C47.7577 502.977 47.4317 504.181 47.2687 504.663C46.5352 506.429 44.1718 509.159 42.3788 511.086L40.3414 513.494V513.574C39.1189 515.341 30.7246 522.486 28.6057 523.048C26.5683 523.529 9.20924 529.871 8.47576 530.193L7.90528 530.273L7.74228 530.755C4.97136 537.017 2.60793 541.753 1.62995 542.797L1.54846 542.877L1.46696 543.038C0.244493 545.045 0 558.211 0 568.808C0 573.223 1.87445 591.528 2.11894 593.615V593.856L10.5947 610.554C11.1652 611.678 24.9383 637.77 26.4868 641.382C28.0352 644.915 39.1189 666.831 39.6079 667.795L39.6894 668.036L39.8524 668.196C40.4229 668.678 54.033 679.998 57.6189 679.998C60.7973 679.998 72.1255 679.596 75.5484 679.516H76.1189L82.9647 670.685L83.0462 670.524C83.6167 668.838 88.9955 653.906 94.0484 649.33H94.1299V649.25C94.2114 649.17 98.2862 644.594 98.2862 642.025C98.2862 640.178 99.4272 629.099 100.405 620.188C100.405 620.108 100.405 620.027 100.405 620.027L104.073 612.24L104.562 590.885L103.502 579.405L100.894 573.143L102.443 550.102C102.443 550.022 102.524 550.022 102.524 550.022L116.297 547.373C120.128 547.935 127.136 549.621 129.663 552.109C132.841 555.24 147.348 559.335 149.141 559.415C150.689 559.415 166.826 557.97 167.478 557.89L168.211 557.809L173.509 545.847L181.658 535.812L181.821 535.652L188.912 507.794L189.156 507.473L189.238 506.991L188.993 495.993L193.313 479.856L202.603 462.997L216.702 453.283L216.784 453.203L223.956 445.416L228.275 437.548C228.275 437.548 226.156 392.59 226.156 392.43C226.156 392.35 234.061 369.148 234.061 369.148L244.004 346.669L257.533 329.088L278.315 302.274V291.597L276.196 275.38L270.98 264.461L269.92 265.505Z" fill="white"/>
<path d="M432.691 146.645L425.717 147.119L425.397 147.435L425.317 147.514L414.255 149.567C414.175 149.567 401.35 152.883 401.35 152.883L401.029 152.962L400.788 153.199C394.456 159.753 386.12 167.886 383.635 169.386C380.188 171.439 375.298 170.807 375.218 170.807C375.138 170.807 370.248 165.28 370.248 165.28L369.687 164.648L368.886 165.043C367.282 165.833 361.752 168.438 360.068 170.097C359.267 170.886 357.744 173.65 355.66 177.677C352.774 183.204 350.61 187.152 349.087 188.416L348.686 188.81C348.686 188.81 349.487 201.997 349.487 202.155C349.487 202.234 347.564 207.919 347.564 207.919L342.514 213.525L342.353 213.683L339.067 222.211L344.357 232.002L347.644 238.398L348.285 249.216L348.926 259.56L351.572 266.745C351.572 266.745 360.389 268.877 360.469 268.956C360.549 269.035 362.313 270.614 362.313 270.614L367.683 277.879L368.004 278.274L385.719 281.037L394.777 285.854L400.869 291.855L401.109 292.092L416.66 296.277L425.637 301.015L425.798 301.093L433.653 302.515L445.035 294.777C445.035 294.777 448.482 283.248 448.562 283.011C448.723 282.932 458.983 278.195 458.983 278.195L469.644 271.878L475.255 260.744C475.255 260.665 480.225 249.532 480.225 249.532L478.702 236.74L475.415 229.712C475.415 229.633 470.365 220.474 470.365 220.474L470.045 219.921L461.388 219.289C461.388 219.289 448.883 219.921 448.482 219.921C448.402 219.605 446.639 214.473 446.639 214.394C446.639 214.236 447.921 207.366 447.921 207.366L451.608 201.286L451.849 200.891C451.849 200.891 450.566 192.522 450.566 192.443C450.566 192.285 449.925 178.309 449.925 178.309L451.849 170.728C451.849 170.649 453.212 164.174 453.212 164.174L452.57 154.936L445.276 152.962C445.276 152.962 437.661 151.699 437.501 151.699C437.18 151.304 433.573 146.566 433.573 146.566L432.691 146.645Z" fill="#1E2F9E"/>
<path d="M296.489 513.976L288.584 515.019L284.183 524.172L282.553 538.542L283.612 547.614L288.502 559.174V569.45V571.377L290.295 570.414C291.517 569.771 293.229 568.567 294.37 567.845C296.733 566.239 299.015 564.714 300.075 564.714C301.134 564.714 303.579 565.436 306.758 566.721L308.795 567.523L306.187 553.715V553.635C305.698 551.628 303.987 545.045 303.498 543.6C302.927 541.994 298.037 534.769 297.63 534.126C297.63 534.046 299.26 525.215 299.26 525.215L302.194 517.588L302.601 516.625L296.978 513.896L296.489 513.976Z" fill="white"/>
<path d="M366.984 277.868L358.182 289.589L351.174 302.916L342.698 315.841L347.425 320.498C347.506 320.578 355.982 327.884 355.982 327.884L356.063 327.964L364.784 333.343L370.814 330.051C370.814 330.051 376.601 322.826 376.682 322.665C376.845 322.665 388.907 320.016 388.907 320.016C388.907 320.016 404.147 321.06 404.31 321.06C404.392 321.14 418.246 331.095 418.246 331.095L431.204 337.437L441.717 337.999L439.925 330.934L440.658 320.578V320.418L439.191 311.185L434.138 301.873L426.151 300.427L417.024 295.611L416.942 295.53C416.942 295.53 401.376 291.356 401.213 291.275C401.132 291.195 394.775 284.933 394.775 284.933L385.403 279.956L367.31 277.146L366.984 277.868Z" fill="white"/>
<path d="M342.209 316.564L341.476 317.608L346.936 329.409L350.033 337.517L350.196 337.839L358.346 343.217C358.346 343.217 368.777 343.699 369.022 343.779C369.185 344.02 373.749 351.085 373.749 351.085L377.253 358.953L377.579 359.595C377.579 359.595 390.945 360.638 391.026 360.638C391.108 360.719 398.198 365.696 398.361 365.776C398.361 366.017 398.931 377.337 398.931 377.337L398.524 385.124L407.896 381.672L413.846 374.688L417.105 364.01L417.676 355.5C417.676 355.5 420.121 349.319 420.284 348.917C420.691 349.078 424.766 350.443 424.929 350.443C425.011 350.523 431.938 353.654 431.938 353.654L441.229 351.486L445.059 347.231C445.222 347.071 445.711 346.67 445.711 346.67L445.385 345.626L442.94 342.013L441.962 338.24L441.718 337.437L431.449 336.875L418.654 330.533L404.962 320.658L404.718 320.498L389.07 319.454L376.601 322.103L370.652 329.57C370.652 329.57 365.191 332.46 364.947 332.62C364.702 332.46 356.471 327.402 356.471 327.402L347.914 320.016L343.106 315.28L342.209 316.564Z" fill="white"/>
<path d="M479.614 237.166C479.614 237.166 481 248.485 481 248.566C480.918 248.646 476.028 259.805 476.028 259.805C476.028 259.805 470.405 270.804 470.405 270.964C470.323 271.045 459.81 277.226 459.729 277.306C459.647 277.387 448.971 282.284 448.971 282.284C448.971 282.284 445.467 294.085 445.385 294.246C445.222 294.326 433.812 302.033 433.812 302.033L438.947 311.346L440.332 320.418C440.332 320.337 439.599 330.774 439.599 330.774V330.934L442.451 342.254L448.238 350.764L459.729 362.084L467.553 374.688L471.872 387.372L472.605 387.452C474.154 387.613 482.059 388.576 484.912 389.54C488.008 390.583 506.019 389.62 506.834 389.54H507.079L507.323 389.379C514.006 385.686 523.216 381.512 527.209 382.234C527.29 382.234 541.634 383.278 541.634 383.278H542.123L542.53 382.957C543.59 382.154 552.881 374.688 554.837 371.798C556.304 369.63 561.519 369.229 565.839 369.55L566.572 369.63L566.98 369.068C568.039 367.543 569.995 364.492 570.729 361.361L571.381 358.31C572.114 354.457 573.092 349.72 574.967 347.231L575.537 346.509C575.537 346.509 567.795 337.036 567.713 336.875C567.713 336.715 567.713 326.439 567.713 326.439L565.024 313.834L558.748 313.112L550.028 321.06C550.028 321.06 547.502 327.964 547.42 328.205C547.176 328.285 540.575 330.694 540.33 330.774C540.167 330.613 536.011 327.723 535.848 327.643C535.766 327.081 534.544 319.133 534.544 319.133L526.394 315.761C526.394 315.761 512.784 315.761 512.539 315.761C512.132 315.28 509.279 311.265 509.279 311.265C509.279 311.265 502.189 304.843 502.026 304.763C502.026 304.602 500.722 297.297 500.722 297.056C500.804 296.895 508.627 285.977 508.627 285.977L513.843 278.912L514.006 278.752L516.044 270.723L508.546 264.06C508.546 264.06 498.848 253.864 498.685 253.704C498.522 252.901 496.647 241.26 496.647 241.26L487.193 237.246L479.533 235.159L479.614 237.166Z" fill="white"/>
<path d="M398.524 385.686C398.524 385.686 398.443 387.693 398.443 387.854C398.117 388.255 392.004 394.678 392.004 394.678C392.004 394.678 391.026 400.057 390.945 400.378C390.619 400.458 383.04 401.903 383.04 401.903L375.705 402.866L374.89 402.947L371.63 415.31L372.689 429.6L373.749 445.416L371.793 452.159L371.548 453.123L372.445 453.524C374.156 454.327 374.401 455.37 374.401 456.093C374.401 459.063 377.09 468.055 377.661 469.821L377.905 470.624L378.72 470.704C392.819 471.668 400.154 472.791 401.214 473.434C402.436 474.237 406.511 479.294 411.482 486.198L411.808 486.68L428.678 488.045L429.086 487.563C432.427 483.469 437.073 479.214 440.088 479.696C442.044 480.017 444.978 480.739 447.83 481.462C451.824 482.506 454.513 483.148 455.572 483.148H455.735H455.898C458.017 482.666 463.396 475.521 464.048 473.514C464.211 473.032 464.211 472.069 464.211 470.383C464.211 467.332 463.967 462.034 463.559 453.524L463.315 448.386C463.315 446.459 459.484 434.578 456.306 432.571C454.921 431.687 453.128 429.359 451.09 426.148L450.764 425.666L440.658 424.623C440.658 424.623 430.797 418.923 430.634 418.842C430.553 418.682 425.907 409.048 425.907 408.968C425.907 408.807 426.478 396.283 426.478 396.283L419.958 387.693L411.808 385.526L398.85 384.402L398.524 385.686Z" fill="white"/>
<path d="M444.407 347.232C444.407 347.232 440.984 351.165 440.821 351.246C440.658 351.246 432.02 353.253 431.857 353.333C431.694 353.253 425.011 350.202 425.011 350.202L419.876 348.516L417.105 355.661L416.535 364.171L413.357 374.688C413.357 374.688 407.652 381.351 407.57 381.431C407.244 381.512 403.006 383.117 403.006 383.117L403.332 385.365L411.482 386.088C411.482 386.088 419.224 388.095 419.387 388.175C419.469 388.336 425.581 396.364 425.744 396.524C425.744 396.926 425.174 409.209 425.174 409.209L430.064 419.404L440.332 425.265L450.764 426.309L448.564 422.295L443.266 402.465C443.266 402.385 443.266 402.305 443.348 402.305L453.942 399.174C454.024 399.174 462.744 400.137 462.744 400.137L463.478 400.217L472.116 387.452L467.797 374.768L459.892 362.003L448.401 350.684L445.385 346.188L444.407 347.232Z" fill="white"/>
<path d="M624.435 7.72179C614.737 9.32741 607.81 11.5753 605.446 13.9837C601.942 17.4358 596.97 18.8809 596.889 18.8809L571.38 16.071C571.136 15.9908 550.354 9.24713 543.997 13.9034L543.915 13.9837L540.492 18.0781L547.501 26.3471C547.664 27.471 549.05 36.7836 549.05 41.7611C549.05 42.885 548.968 43.5273 548.887 43.8484C548.398 46.2568 543.182 52.2779 538.292 57.1751L521.259 64.1596L507.73 61.992C507.486 61.8314 489.964 48.1033 485.807 48.1033C482.059 48.1033 463.966 49.2272 460.462 49.4681L459.81 49.5484L459.484 50.1906C458.995 51.154 457.446 54.4455 457.446 57.0948C457.446 58.299 457.772 59.1821 458.424 59.8244L461.277 68.2539L457.772 74.5961L448.237 83.3468L447.911 83.6679L447.83 84.2299L447.748 85.113C447.748 86.7989 447.993 89.7693 449.867 91.1341C450.03 91.4552 452.067 96.8341 452.067 100.286C452.067 103.658 446.444 105.665 445.792 105.906L445.629 105.986L432.916 114.978L432.834 115.379C432.589 116.182 430.145 123.487 430.145 125.414C430.145 126.779 428.678 133.683 426.233 143.558L425.825 145.083C425.825 145.083 433.404 144.601 433.649 144.601C434.056 145.163 437.642 149.82 437.642 149.82C437.642 149.82 445.629 151.104 445.711 151.185C445.792 151.185 452.475 153.031 452.801 153.111C452.801 153.432 453.453 162.103 453.453 162.103L452.149 168.606L450.193 176.393L450.845 190.763C450.845 190.763 452.149 199.032 452.149 199.273C451.904 199.674 448.156 205.776 448.156 205.776L446.77 213.081L448.808 219.183L462.255 218.541C462.255 218.541 470.486 219.183 470.73 219.183C470.893 219.424 476.028 228.897 476.028 228.897L479.125 235.64L479.369 236.122L486.785 238.129C486.785 238.129 495.669 241.902 495.913 241.983C496.158 243.267 497.869 254.346 497.869 254.346L507.812 264.783C507.812 264.783 514.902 271.125 515.065 271.285C514.984 271.446 513.109 278.992 513.109 278.992L507.812 286.057L499.744 297.296L501.129 305.325L508.464 311.908L511.479 316.082L511.805 316.564H525.904C525.904 316.564 533.402 319.695 533.647 319.775C533.728 320.498 534.951 328.205 534.951 328.205L539.759 331.577L547.257 328.847L549.946 321.541C549.946 321.541 558.259 313.995 558.422 313.834C558.666 313.834 563.801 314.396 564.127 314.477C564.208 314.798 566.735 326.76 566.735 326.76V337.277L574.64 347.071L575.536 346.429C575.862 346.188 576.27 346.027 576.677 345.867C580.019 345.064 592.977 346.83 600.067 347.954C600.149 347.954 611.721 350.041 617.997 347.954C620.279 347.231 621.42 344.341 621.42 339.364C621.42 335.43 620.686 330.934 620.034 328.285L609.44 290.633C609.684 290.151 614.818 280.036 617.915 275.942C621.012 271.847 624.191 256.273 624.272 256.192L630.629 236.363V236.283C630.792 235.239 633.644 211.395 633.644 196.222C633.644 192.369 633.481 189.398 633.074 187.391C632.748 185.786 632.666 184.1 632.666 182.414C632.666 173.744 636.415 167.16 637.23 165.956L637.393 165.715L639.512 149.017L642.365 129.509C642.365 129.428 642.365 129.428 642.446 129.428L652.307 125.254C655.323 126.297 660.62 128.304 662.332 129.428C664.451 130.793 675.697 134.968 679.935 134.245C681.565 134.004 683.928 133.362 686.373 132.64C690.611 131.516 693.79 130.632 695.501 130.713H696.153L696.479 130.151C697.05 129.268 701.695 121.48 701.695 118.43C701.695 115.138 697.376 102.775 696.887 101.41L696.805 101.089L681.321 87.9228H670.726C667.873 87.9228 661.435 81.6609 661.435 78.0482C661.435 75.6398 663.473 70.0201 665.347 65.5243L665.591 64.8821L665.102 64.3201C658.175 56.1314 657.849 54.0441 657.849 53.723C657.849 52.7596 659.235 50.6723 663.065 47.7019L663.473 47.3808L663.554 44.5709C663.554 41.9216 663.31 38.3892 662.006 36.3822C660.783 34.4555 655.323 28.5146 648.884 21.5302C645.38 17.757 642.365 14.5457 641.55 13.4218C639.757 10.2908 628.347 7.07953 624.435 7.72179Z" fill="white"/>
<path d="M302.927 416.755H297.141L290.05 423.178L285.161 432.249L282.471 442.927L290.621 453.604C290.621 453.604 302.275 464.603 302.357 464.683C302.357 464.763 305.454 473.835 305.535 473.996C305.209 474.477 302.357 479.214 302.357 479.214L301.786 485.155C301.786 485.155 306.024 489.811 306.106 489.972C306.106 490.132 307.165 497.839 307.165 497.839C307.165 497.839 306.676 508.436 306.595 508.838C306.513 508.918 301.786 516.705 301.786 516.705L298.526 525.215L296.896 534.287L297.141 534.688C300.238 539.264 302.52 542.957 302.764 543.84C303.253 545.366 305.291 553.314 305.454 553.876L308.061 567.604L315.967 564.071L318.086 552.35C321.509 526.018 324.931 507.232 326.643 505.546C326.887 505.305 327.213 505.065 327.621 504.984L328.517 504.743V497.598L323.057 492.22C323.057 492.22 313.603 482.425 313.522 482.265C313.522 482.104 313.522 474.718 313.522 474.558C313.603 474.397 319.879 467.332 319.96 467.172C320.042 467.092 327.458 460.268 327.458 460.268V453.845C327.458 453.765 326.398 436.504 326.398 436.504V436.264L322.568 427.673L315.07 422.937L303.172 416.514H302.927V416.755Z" fill="white"/>
<path d="M356.145 475.842C356.145 475.842 355.086 479.054 355.004 479.134C354.923 479.214 348.158 485.877 348.077 485.958C347.995 486.038 342.779 490.132 342.779 490.132L328.191 497.599V504.824L329.169 504.984C332.592 505.627 337.075 509.801 338.297 511.086C338.542 511.327 361.605 534.769 363.724 536.134C365.843 537.498 377.009 540.95 377.09 540.95C377.172 541.031 386.299 546.57 390.537 550.745C394.205 554.357 404.636 562.546 407.733 565.035L408.141 565.356L422.158 563.269L430.553 553.635L425.663 541.914L425.255 541.753C406.103 533.243 405.207 531.076 405.207 530.755C405.207 529.791 406.755 527.463 411.238 524.011L411.564 523.77L414.334 512.772L413.275 512.451C411.075 511.728 405.696 509.801 402.354 506.51L398.687 502.977C392.982 497.518 384.343 489.249 383.284 487.001C381.898 484.272 372.526 480.98 372.119 480.82C369.429 479.937 362.665 477.769 357.775 475.28L356.553 474.638L356.145 475.842Z" fill="white"/>
<path d="M339.845 402.465H338.867L337.237 409.53C337.237 409.53 338.215 416.514 338.297 416.835C338.052 416.996 333.57 419.966 333.57 419.966C333.651 419.966 327.295 423.579 327.295 423.579L327.213 423.659L322.242 427.994L326.072 436.585L327.132 454.006V460.589C327.132 460.589 334.711 459.545 334.874 459.465C335.037 459.545 341.801 462.114 341.801 462.114L352.396 468.697L352.885 467.252C353.374 465.727 354.27 464.442 354.922 463.479L355.33 462.515L355.167 463.158C356.145 461.713 362.094 456.735 367.228 452.721C367.473 452.721 369.266 452.721 370.977 453.123L372.118 453.444L374.4 445.576L373.341 429.68L372.281 415.149L366.658 415.711C366.658 415.711 357.856 413.142 357.693 413.062C357.449 412.741 352.885 407.844 352.885 407.844L345.795 402.465H345.387H339.845Z" fill="white"/>
<path d="M334.548 459.063L327.213 460.107L319.634 467.011L313.114 474.558V482.666L322.812 492.782L328.354 498.241L343.024 490.774L348.403 486.6L355.493 479.615L357.042 474.959L356.227 474.477C353.7 473.032 353.13 472.069 352.967 471.748C352.641 470.945 352.478 470.222 352.478 469.42L352.559 468.376L351.989 468.055L342.046 461.873L334.956 459.224L334.548 459.063Z" fill="white"/>
</g>
<path d="M534.765 143.104H536.349V156.784H534.765V143.104ZM532.301 144.304V145.552V145.6C532.269 149.872 529.005 152.272 525.757 153.136L525.389 151.696C528.237 150.928 530.781 149.088 530.797 145.6H525.789V144.304H532.301ZM545.268 157.52C543.204 157.52 541.764 156.256 541.764 154.48C541.764 152.704 543.204 151.44 545.268 151.44C547.364 151.44 548.82 152.704 548.82 154.48C548.82 156.256 547.364 157.52 545.268 157.52ZM545.268 156.24C546.468 156.24 547.284 155.52 547.284 154.48C547.284 153.44 546.468 152.736 545.268 152.736C544.1 152.736 543.284 153.44 543.284 154.48C543.284 155.52 544.1 156.24 545.268 156.24ZM539.844 150.48L538.788 149.488L541.188 146.896C541.684 146.336 541.796 145.904 541.796 145.472V145.072H539.028V143.792H545.924V145.072H543.284V145.472C543.284 145.92 543.396 146.336 543.892 146.88L546.292 149.488L545.236 150.48L542.836 147.872L542.532 147.504L542.244 147.856L539.844 150.48ZM547.86 151.296V143.104H549.428V146.576H551.46V147.872H549.428V151.296H547.86ZM552.107 148.976H561.211V145.104H553.771V143.808H562.795V148.976H564.939V150.24H559.387V153.536H557.803V150.24H552.107V148.976ZM553.963 152.272H555.531V155.712H563.163V156.992H553.963V152.272Z" fill="#4E4D6B"/>
<path d="M468.966 333.595H470.454V347.275H468.966V340.811H467.43V346.603H465.958V333.899H467.43V339.531H468.966V333.595ZM458.374 335.515H460.934V333.835H462.486V335.515H465.046V336.795H458.374V335.515ZM461.702 343.723C459.862 343.723 458.566 342.411 458.566 340.539C458.566 338.667 459.862 337.339 461.702 337.339C463.558 337.339 464.854 338.667 464.854 340.539C464.854 342.411 463.558 343.723 461.702 343.723ZM461.702 342.411C462.71 342.411 463.414 341.659 463.414 340.539C463.414 339.419 462.71 338.651 461.702 338.651C460.694 338.651 460.006 339.419 460.006 340.539C460.006 341.659 460.694 342.411 461.702 342.411ZM472.141 340.555H484.973V341.819H479.453V344.523H477.853V341.819H472.141V340.555ZM474.045 343.179H475.629V346.171H483.133V347.467H474.045V343.179ZM474.701 336.683C474.701 334.779 476.269 333.563 478.509 333.563C480.797 333.563 482.397 334.779 482.397 336.683C482.397 338.443 480.797 339.755 478.509 339.755C476.269 339.755 474.701 338.443 474.701 336.683ZM476.205 336.683C476.205 337.691 477.149 338.459 478.525 338.459C479.917 338.459 480.893 337.691 480.893 336.683C480.893 335.547 479.917 334.875 478.525 334.875C477.149 334.875 476.205 335.547 476.205 336.683ZM496.42 333.595H497.924V347.275H496.42V340.475H494.708V346.555H493.236V333.883H494.708V339.179H496.42V333.595ZM492.132 342.235V343.531H486.484V334.811H491.812V336.107H488.052V342.235H492.132ZM499.578 340.779H508.794V335.707H501.002V334.411H510.378V340.779H512.394V342.075H506.746V347.787H505.146V342.075H499.578V340.779Z" fill="#4E4D6B"/>
<path d="M298.723 275.627H311.523V276.891H305.891V278.379H309.667V283.163H308.115V279.643H300.579V278.379H304.323V276.891H298.723V275.627ZM300.675 269.355H302.227V270.699H308.035V269.355H309.587V274.475H300.675V269.355ZM302.227 271.899V273.227H308.035V271.899H302.227ZM312.442 276.187H321.658V271.115H313.866V269.819H323.242V276.187H325.258V277.483H319.61V283.195H318.01V277.483H312.442V276.187Z" fill="#4E4D6B"/>
<path d="M319.188 380.296H332.356V382.248H326.964V386.6H324.468V382.248H319.188V380.296ZM320.916 372.584H323.396V374.04H328.084V372.584H330.548V379.096H320.916V372.584ZM323.396 375.976V377.128H328.084V375.976H323.396ZM342.196 372.04H344.692V376.12H346.516V378.168H344.692V382.296H342.196V372.04ZM335.62 381.608H338.132V384.392H345.14V386.376H335.62V381.608ZM334.788 380.344L333.06 378.776L335.652 375.944C336.132 375.448 336.228 375.176 336.228 374.872V372.872H338.724V374.872C338.724 375.192 338.804 375.416 339.3 375.96L341.892 378.776L340.164 380.344L337.572 377.528L337.476 377.432L337.38 377.544L334.788 380.344ZM356.789 372.04H359.301V386.12H356.789V372.04ZM349.029 382.776L347.173 381.368L349.765 377.88C350.341 377.112 350.437 376.808 350.437 376.232V375.24H347.781V373.208H355.621V375.24H352.965V376.232C352.965 376.808 353.061 377.112 353.637 377.88L356.229 381.368L354.373 382.776L351.749 379.288L351.701 379.224L351.653 379.288L349.029 382.776ZM361.141 379H369.685V374.696H362.485V372.664H372.213V379H374.309V381.016H368.901V386.616H366.373V381.016H361.141V379Z" fill="#4E4D6B"/>
<path d="M253.733 382.029H255.301V387.661H257.541V388.973H255.301V395.709H253.733V382.029ZM245.301 392.365L244.117 391.533L246.725 387.885C247.349 387.005 247.509 386.413 247.509 385.725V382.957H249.013V385.725C249.013 386.429 249.157 387.021 249.781 387.885L252.389 391.533L251.205 392.365L248.597 388.717L248.261 388.189L247.909 388.717L245.301 392.365ZM265.036 396.445C262.972 396.445 261.532 395.181 261.532 393.405C261.532 391.629 262.972 390.365 265.036 390.365C267.132 390.365 268.588 391.629 268.588 393.405C268.588 395.181 267.132 396.445 265.036 396.445ZM265.036 395.165C266.236 395.165 267.052 394.445 267.052 393.405C267.052 392.365 266.236 391.661 265.036 391.661C263.868 391.661 263.052 392.365 263.052 393.405C263.052 394.445 263.868 395.165 265.036 395.165ZM259.452 389.437L258.332 388.509L260.684 385.693C261.18 385.101 261.308 384.621 261.308 384.173V382.509H262.828V384.173C262.828 384.621 262.94 385.069 263.452 385.693L265.804 388.509L264.684 389.437L262.332 386.621L262.076 386.269L261.804 386.621L259.452 389.437ZM267.532 390.093V382.029H269.1V385.549H271.132V386.861H269.1V390.093H267.532ZM271.779 389.213H280.995V384.141H273.203V382.845H282.579V389.213H284.595V390.509H278.947V396.221H277.347V390.509H271.779V389.213Z" fill="#4E4D6B"/>
<path d="M122.757 447.402C125.621 446.874 127.765 445.418 127.781 443.21H123.093V441.93H129.253V443.194V443.21C129.237 446.25 126.293 448.234 123.029 448.842L122.757 447.402ZM129.093 455.626C127.029 455.626 125.589 454.362 125.589 452.586C125.589 450.81 127.029 449.546 129.093 449.546C131.189 449.546 132.645 450.81 132.645 452.586C132.645 454.362 131.189 455.626 129.093 455.626ZM129.093 454.346C130.293 454.346 131.109 453.626 131.109 452.586C131.109 451.546 130.293 450.842 129.093 450.842C127.925 450.842 127.109 451.546 127.109 452.586C127.109 453.626 127.925 454.346 129.093 454.346ZM131.701 449.45V441.21H133.269V444.746H135.301V446.042H133.269V449.45H131.701ZM142.924 445.882H146.108V441.194H147.676V454.906H146.108V447.146H142.924V445.882ZM136.924 451.45L135.772 450.586L138.412 447.05C139.036 446.202 139.18 445.61 139.18 444.906V442.138H140.684V444.906C140.684 445.61 140.812 446.218 141.436 447.05L144.076 450.586L142.924 451.45L140.284 447.914C140.156 447.738 140.028 447.546 139.932 447.386C139.82 447.546 139.708 447.738 139.564 447.914L136.924 451.45ZM149.666 448.394H158.882V443.322H151.09V442.026H160.466V448.394H162.482V449.69H156.834V455.402H155.234V449.69H149.666V448.394Z" fill="#4E4D6B"/>
<path d="M248.423 494.128H249.991V499.76H252.231V501.072H249.991V507.808H248.423V494.128ZM239.991 504.464L238.807 503.632L241.415 499.984C242.039 499.104 242.199 498.512 242.199 497.824V495.056H243.703V497.824C243.703 498.528 243.847 499.12 244.471 499.984L247.079 503.632L245.895 504.464L243.287 500.816L242.951 500.288L242.599 500.816L239.991 504.464ZM262.158 494.128H263.726V499.84H265.95V501.152H263.726V507.808H262.158V494.128ZM252.958 495.936H256.11V494.368H257.662V495.936H260.814V497.2H252.958V495.936ZM256.878 504.464C254.894 504.464 253.486 503.104 253.486 501.152C253.486 499.184 254.894 497.808 256.878 497.808C258.878 497.808 260.286 499.184 260.286 501.152C260.286 503.104 258.878 504.464 256.878 504.464ZM256.878 503.152C258.014 503.152 258.782 502.32 258.782 501.152C258.782 499.952 258.014 499.136 256.878 499.136C255.758 499.136 254.99 499.952 254.99 501.152C254.99 502.32 255.758 503.152 256.878 503.152ZM266.469 501.312H275.685V496.24H267.893V494.944H277.269V501.312H279.285V502.608H273.637V508.32H272.037V502.608H266.469V501.312Z" fill="#4E4D6B"/>
<path d="M299.612 446.092H302.796V441.404H304.364V455.116H302.796V447.356H299.612V446.092ZM293.612 451.66L292.46 450.796L295.1 447.26C295.724 446.412 295.868 445.82 295.868 445.116V442.348H297.372V445.116C297.372 445.82 297.5 446.428 298.124 447.26L300.764 450.796L299.612 451.66L296.972 448.124C296.844 447.948 296.716 447.756 296.62 447.596C296.508 447.756 296.396 447.948 296.252 448.124L293.612 451.66ZM306.355 448.604H315.571V443.532H307.779V442.236H317.155V448.604H319.171V449.9H313.523V455.612H311.923V449.9H306.355V448.604Z" fill="#4E4D6B"/>
<path d="M336.183 441.967H341.799V440.527H338.055V436.079H347.095V437.343H339.607V439.247H347.175V440.527H343.367V441.967H348.983V443.231H336.183V441.967ZM342.583 450.079C340.423 450.079 338.903 448.767 338.903 447.007C338.903 445.247 340.423 443.951 342.583 443.951C344.759 443.951 346.279 445.247 346.279 447.007C346.279 448.767 344.759 450.079 342.583 450.079ZM342.583 448.751C343.863 448.751 344.743 448.015 344.743 447.007C344.743 446.015 343.863 445.279 342.583 445.279C341.303 445.279 340.439 446.015 340.439 447.007C340.439 448.015 341.303 448.751 342.583 448.751ZM349.886 442.671H359.102V437.599H351.31V436.303H360.686V442.671H362.702V443.967H357.054V449.679H355.454V443.967H349.886V442.671Z" fill="#4E4D6B"/>
<path d="M420.397 385.355H433.213V386.635H427.549V391.595H425.997V386.635H420.397V385.355ZM422.237 384.059L421.405 382.875L425.053 380.331C425.821 379.803 425.997 379.371 425.997 379.099V377.883H427.613V379.099C427.613 379.371 427.789 379.787 428.573 380.331L432.221 382.875L431.389 384.059L427.741 381.515C427.341 381.243 427.037 380.971 426.813 380.699C426.589 380.971 426.285 381.243 425.885 381.515L422.237 384.059ZM438.084 384.891C435.956 384.891 434.484 383.467 434.484 381.451C434.484 379.419 435.956 377.995 438.084 377.995C439.316 377.995 440.34 378.475 440.964 379.291H444.26V377.435H445.828V385.739H444.26V383.787H440.804C440.164 384.475 439.22 384.891 438.084 384.891ZM441.588 391.851C439.508 391.851 438.068 390.587 438.068 388.811C438.068 387.035 439.508 385.771 441.588 385.771C443.668 385.771 445.124 387.035 445.124 388.811C445.124 390.587 443.668 391.851 441.588 391.851ZM441.588 390.571C442.772 390.571 443.604 389.851 443.604 388.811C443.604 387.771 442.772 387.067 441.588 387.067C440.404 387.067 439.588 387.771 439.588 388.811C439.588 389.851 440.404 390.571 441.588 390.571ZM438.084 383.595C439.3 383.595 440.132 382.715 440.132 381.451C440.132 380.155 439.3 379.275 438.084 379.275C436.852 379.275 436.02 380.155 436.02 381.451C436.02 382.715 436.852 383.595 438.084 383.595ZM441.524 382.507H444.26V380.555H441.572C441.636 380.843 441.668 381.131 441.668 381.451C441.668 381.819 441.62 382.171 441.524 382.507ZM447.834 384.619H457.05V379.547H449.258V378.251H458.634V384.619H460.65V385.915H455.002V391.627H453.402V385.915H447.834V384.619Z" fill="#4E4D6B"/>
<path d="M412.225 439.442H413.793V442.578H415.825V443.874H413.793V447.442H412.225V439.442ZM405.025 448.162H413.793V453.41H405.025V448.162ZM412.273 449.394H406.561V452.162H412.273V449.394ZM410.721 445.282V446.578H403.473V440.21H405.041V445.282H410.721ZM416.455 446.626H425.671V441.554H417.879V440.258H427.255V446.626H429.271V447.922H423.623V453.634H422.023V447.922H416.455V446.626Z" fill="#4E4D6B"/>
<path d="M360.666 519.87C358.538 519.87 357.066 518.446 357.066 516.43C357.066 514.398 358.538 512.974 360.666 512.974C361.898 512.974 362.922 513.454 363.546 514.27H366.842V512.414H368.41V520.718H366.842V518.766H363.386C362.746 519.454 361.802 519.87 360.666 519.87ZM364.17 526.83C362.09 526.83 360.65 525.566 360.65 523.79C360.65 522.014 362.09 520.75 364.17 520.75C366.25 520.75 367.706 522.014 367.706 523.79C367.706 525.566 366.25 526.83 364.17 526.83ZM364.17 525.55C365.354 525.55 366.186 524.83 366.186 523.79C366.186 522.75 365.354 522.046 364.17 522.046C362.986 522.046 362.17 522.75 362.17 523.79C362.17 524.83 362.986 525.55 364.17 525.55ZM360.666 518.574C361.882 518.574 362.714 517.694 362.714 516.43C362.714 515.134 361.882 514.254 360.666 514.254C359.434 514.254 358.602 515.134 358.602 516.43C358.602 517.694 359.434 518.574 360.666 518.574ZM364.106 517.486H366.842V515.534H364.154C364.218 515.822 364.25 516.11 364.25 516.43C364.25 516.798 364.202 517.15 364.106 517.486ZM372.272 513.374H381.472V514.654H373.856V518.67H381.472V519.95H377.6V522.926H383.232V524.222H370.416V522.926H376.048V519.95H372.272V513.374ZM384.135 519.598H393.351V514.526H385.559V513.23H394.935V519.598H396.951V520.894H391.303V526.606H389.703V520.894H384.135V519.598Z" fill="#4E4D6B"/>
<path d="M327.095 491.911C324.935 491.911 323.415 490.647 323.415 488.935C323.415 487.367 324.567 486.295 326.279 486.039V484.791H320.679V483.543H333.479V484.791H327.863V486.023C329.623 486.263 330.791 487.351 330.791 488.935C330.791 490.647 329.271 491.911 327.095 491.911ZM327.095 490.615C328.375 490.615 329.255 489.895 329.255 488.935C329.255 487.991 328.375 487.271 327.095 487.271C325.815 487.271 324.951 487.991 324.951 488.935C324.951 489.895 325.815 490.615 327.095 490.615ZM322.599 482.935L322.023 481.687L325.511 480.055C326.135 479.751 326.295 479.351 326.311 479.079H322.407V477.799H331.735V479.079H327.831C327.847 479.351 328.007 479.751 328.631 480.055L332.119 481.687L331.543 482.935L328.055 481.303C327.623 481.095 327.303 480.855 327.079 480.599C326.839 480.855 326.519 481.095 326.087 481.303L322.599 482.935ZM334.397 484.503H343.613V479.431H335.821V478.135H345.197V484.503H347.213V485.799H341.565V491.511H339.965V485.799H334.397V484.503Z" fill="#4E4D6B"/>
<path d="M364.858 307.856H370.474V306.416H366.73V301.968H375.77V303.232H368.282V305.136H375.85V306.416H372.042V307.856H377.658V309.12H364.858V307.856ZM371.258 315.968C369.098 315.968 367.578 314.656 367.578 312.896C367.578 311.136 369.098 309.84 371.258 309.84C373.434 309.84 374.954 311.136 374.954 312.896C374.954 314.656 373.434 315.968 371.258 315.968ZM371.258 314.64C372.538 314.64 373.418 313.904 373.418 312.896C373.418 311.904 372.538 311.168 371.258 311.168C369.978 311.168 369.114 311.904 369.114 312.896C369.114 313.904 369.978 314.64 371.258 314.64ZM389.12 301.376H390.624V315.056H389.12V307.92H387.408V314.336H385.92V301.664H387.408V306.64H389.12V301.376ZM379.04 302.544H384.48V307.552H380.576V310.208H384.832V311.504H379.072V306.288H382.976V303.808H379.04V302.544ZM392.279 308.56H401.495V303.488H393.703V302.192H403.079V308.56H405.095V309.856H399.447V315.568H397.847V309.856H392.279V308.56Z" fill="#4E4D6B"/>
<path d="M386.928 337.566H388.512V347.198H386.928V343.998H383.424C382.8 344.654 381.856 345.054 380.752 345.054C378.624 345.054 377.152 343.63 377.152 341.614C377.152 339.582 378.624 338.158 380.752 338.158C381.984 338.158 382.992 338.638 383.616 339.438H386.928V337.566ZM379.664 346.798H381.232V350.142H388.608V351.422H379.664V346.798ZM380.752 343.758C381.968 343.758 382.8 342.878 382.8 341.614C382.8 340.318 381.968 339.438 380.752 339.438C379.52 339.438 378.688 340.318 378.688 341.614C378.688 342.878 379.52 343.758 380.752 343.758ZM384.176 342.734H386.928V340.718H384.24C384.304 341.006 384.336 341.294 384.336 341.614C384.336 342.014 384.272 342.382 384.176 342.734ZM401.062 337.55H402.566V351.23H401.062V337.55ZM396.198 342.062H398.214V337.838H399.686V350.526H398.214V343.342H396.198V342.062ZM391.574 347.422L390.326 346.686L392.518 343.07C393.046 342.206 393.174 341.582 393.174 340.862V340.078H390.838V338.798H396.998V340.078H394.662V340.862C394.662 341.582 394.79 342.19 395.334 343.07L397.51 346.686L396.262 347.422L394.086 343.806L393.926 343.534L393.766 343.806L391.574 347.422ZM404.221 344.734H413.437V339.662H405.645V338.366H415.021V344.734H417.037V346.03H411.389V351.742H409.789V346.03H404.221V344.734Z" fill="#4E4D6B"/>
<path d="M433.289 144.298L425.191 144.78L425.354 146.867C425.354 146.867 431.898 146.466 432.88 146.386C433.452 147.108 436.806 151.525 436.806 151.525L445.231 152.89C445.231 152.89 450.548 154.335 451.693 154.656C451.775 155.861 452.266 162.686 452.266 162.927C452.184 163.168 450.957 169.35 450.957 169.35L448.912 177.3L449.566 191.833C449.566 191.833 450.712 199.381 450.875 200.104C450.548 200.666 446.949 206.447 446.949 206.447L445.558 214.075L447.931 220.981C447.931 220.981 461.836 220.258 462 220.258C462.163 220.258 469.034 220.82 470.016 220.9C470.507 221.784 475.087 230.215 475.087 230.215L478.605 237.762C478.605 237.762 486.212 239.77 486.375 239.85C486.539 239.93 494.146 243.142 495.128 243.544C495.291 244.588 497.091 255.749 497.091 255.749L507.315 266.428C507.315 266.428 513.45 271.888 514.268 272.611C514.023 273.574 512.55 279.356 512.469 279.677C512.223 279.998 507.234 286.743 507.234 286.743L498.972 298.225L500.444 306.817C500.444 306.817 507.806 313.401 507.97 313.562C508.133 313.722 511.569 318.46 511.569 318.46C511.569 318.46 525.474 318.46 525.883 318.46C526.21 318.62 532.182 321.029 533.163 321.431C533.327 322.394 534.472 329.782 534.472 329.782L539.952 333.636L548.296 330.665C548.296 330.665 550.913 323.679 551.077 323.278C551.404 322.956 558.52 316.533 559.175 315.89C559.911 315.971 562.856 316.292 563.919 316.372C564.164 317.657 566.373 327.774 566.373 327.935C566.373 328.176 566.373 338.694 566.373 338.694L574.634 348.812L576.27 347.527C576.27 347.527 568.909 338.534 568.5 337.972C568.5 337.329 568.5 327.774 568.5 327.774L565.637 314.525L558.439 313.722L549.196 322.073C549.196 322.073 546.905 328.256 546.578 329.059C545.842 329.3 541.098 330.986 540.198 331.307C539.543 330.825 536.926 328.979 536.353 328.577C536.272 327.774 534.963 319.905 534.963 319.905L526.211 316.292C526.211 316.292 513.532 316.292 512.55 316.292C512.06 315.569 509.442 312.036 509.442 312.036C509.442 312.036 502.816 306.094 502.326 305.693C502.244 305.05 501.262 299.349 501.099 298.627C501.59 297.984 508.869 287.867 508.869 287.867L514.35 280.56L516.558 271.888L508.788 264.902C508.788 264.902 499.463 255.187 499.054 254.705C498.972 254.143 497.009 242.018 497.009 242.018L487.111 237.843C487.111 237.843 481.058 236.237 480.159 235.996C479.831 235.193 477.05 229.251 477.05 229.251L471.406 218.893L462.081 218.17C462.081 218.17 450.875 218.732 449.485 218.813C449.076 217.769 447.931 214.316 447.849 213.915C447.931 213.433 449.076 207.491 449.076 207.17C449.239 206.849 453.166 200.505 453.166 200.505L451.775 191.673C451.775 191.673 451.121 177.862 451.121 177.541C451.202 177.219 453.084 169.832 453.084 169.832L454.474 163.087L453.738 153.05L445.722 150.882C445.722 150.882 438.769 149.758 438.033 149.598C437.624 149.035 433.943 144.218 433.943 144.218L433.289 144.298Z" fill="#E2F2E4"/>
<path d="M347.017 188.248C347.017 188.248 347.832 201.608 347.832 201.928C347.751 202.248 346.121 207.048 345.958 207.368C345.713 207.688 340.661 213.208 340.661 213.208L337.075 222.329L342.617 232.489C342.617 232.489 345.632 238.409 345.795 238.809C345.795 239.209 346.447 249.689 346.447 249.689L347.099 260.25L350.033 268.09C350.033 268.09 358.835 270.25 359.324 270.33C359.65 270.57 360.872 271.69 361.035 271.77C361.198 271.93 366.984 279.77 366.984 279.77C366.984 279.77 384.751 282.57 385.077 282.65C385.403 282.81 393.797 287.29 394.042 287.37C394.286 287.61 400.561 293.77 400.561 293.77C400.561 293.77 416.209 297.93 416.453 298.01C416.698 298.09 425.826 302.971 425.826 302.971L434.301 304.491L446.445 296.33C446.445 296.33 449.705 285.29 449.949 284.49C450.764 284.09 460.218 279.77 460.218 279.77L471.301 273.21L477.169 261.69L482.304 250.169L480.674 237.049L478.555 237.289C478.555 237.289 480.022 249.289 480.103 249.849C479.859 250.329 475.213 260.81 475.213 260.81C475.213 260.81 469.916 271.21 469.671 271.69C469.182 272.01 459.24 277.85 459.24 277.85L448.156 282.89C448.156 282.89 444.733 294.25 444.57 294.89C444 295.29 434.464 301.691 433.812 302.171C433.079 302.011 426.804 300.891 426.559 300.891C426.315 300.731 417.268 296.01 417.268 296.01C417.268 296.01 402.191 292.01 401.702 291.85C401.295 291.45 395.346 285.61 395.346 285.61L385.729 280.57C385.729 280.57 368.94 277.93 368.125 277.77C367.636 277.13 362.583 270.33 362.583 270.33L360.383 268.41C360.383 268.41 352.641 266.49 351.663 266.25C351.337 265.37 349.381 260.01 349.218 259.77C349.218 259.45 348.566 249.529 348.566 249.529L347.914 238.249L344.491 231.529C344.491 231.529 339.846 222.889 339.357 222.169C339.683 221.369 342.291 214.649 342.454 214.329C342.698 214.089 347.751 208.408 347.751 208.408L349.87 202.168L349.055 188.088L347.017 188.248Z" fill="#E2F2E4"/>
<path d="M433.161 303.931C433.161 303.931 437.888 312.571 438.051 312.891C438.132 313.211 439.436 321.531 439.436 321.691C439.436 321.931 438.702 332.251 438.702 332.251L441.636 343.772L447.504 352.412C447.504 352.412 458.751 363.452 458.914 363.612C459.077 363.852 466.493 375.852 466.656 376.012C466.738 376.252 471.057 388.813 471.057 388.813L473.013 388.173L468.531 375.132L460.544 362.332C460.544 362.332 449.216 351.212 449.053 351.052C448.971 350.892 443.674 343.132 443.511 342.892C443.429 342.572 440.821 332.331 440.74 332.011C440.74 331.691 441.473 321.531 441.473 321.531L440.006 312.091L434.954 302.811L433.161 303.931Z" fill="#E2F2E4"/>
<path d="M270.084 266.65C270.084 266.65 274.892 276.73 275.055 277.05C275.136 277.37 277.174 292.81 277.174 292.97C277.174 293.13 277.174 302.411 277.174 303.051C276.766 303.611 256.637 329.451 256.637 329.451L242.945 347.132L232.921 369.692L224.934 393.133C224.934 393.133 227.053 437.374 227.053 437.934C226.808 438.414 223.059 445.054 222.978 445.294C222.815 445.454 216.132 452.654 215.969 452.814C215.806 452.974 201.544 462.734 201.544 462.734L192.09 479.935L187.689 496.335L187.934 508.335L190.053 508.255C190.053 508.255 189.808 496.815 189.808 496.575C189.89 496.335 193.965 480.895 194.046 480.655C194.128 480.415 202.93 464.574 203.174 464.174C203.582 463.934 217.355 454.414 217.355 454.414L224.689 446.494L229.172 438.414C229.172 438.414 227.053 393.773 227.053 393.373C227.216 393.053 234.877 370.412 234.877 370.412C234.877 370.412 244.738 348.412 244.819 348.172C244.982 348.012 258.348 330.731 258.348 330.731L279.293 303.771V292.81L277.092 276.41L272.04 265.77L270.084 266.65Z" fill="#E2F2E4"/>
<path d="M357.612 290.33L350.522 303.611C350.522 303.611 341.231 317.771 341.068 318.091C340.742 318.331 332.674 323.771 332.674 323.771C332.674 323.771 314.174 333.611 314.092 333.691C314.011 333.771 306.92 336.491 306.431 336.731C305.861 336.571 296.57 334.651 296.57 334.651L283.205 330.971L261.771 324.171L261.119 326.171L282.553 333.051L296 336.731L306.594 338.892L314.989 335.611L333.815 325.611L342.698 319.611L352.478 304.731C352.478 304.731 359.405 291.69 359.486 291.53C359.568 291.37 368.533 279.45 368.533 279.45L366.821 278.25L357.612 290.33Z" fill="#E2F2E4"/>
<path d="M305.698 338.571C305.698 338.571 310.995 343.772 311.403 344.172C311.566 344.652 314.092 353.772 314.337 354.892C313.522 355.612 309.121 359.532 308.958 359.692C308.795 359.772 300.564 364.652 300.564 364.652L298.852 374.172L300.482 391.133C300.482 391.133 308.388 396.573 309.366 397.293C309.04 398.413 307.491 404.333 307.41 404.413C307.328 404.493 302.846 415.693 302.357 416.893C301.216 416.893 296.733 416.893 296.733 416.893L289.317 423.613L284.346 432.814C284.346 432.814 282.227 441.214 281.819 442.654C280.352 442.574 273.507 442.174 273.507 442.174L264.216 442.734C264.216 442.734 259.489 453.054 259.244 453.534C258.755 453.854 253.295 457.294 252.48 457.774C251.665 457.454 246.286 455.134 245.797 454.974C245.471 454.494 241.07 447.774 241.07 447.774L228.601 437.534L227.216 439.134C227.216 439.134 239.196 448.974 239.44 449.214C239.603 449.454 244.33 456.734 244.33 456.734L252.643 460.254L260.874 455.054C260.874 455.054 265.112 445.854 265.601 444.814C266.661 444.734 273.344 444.334 273.507 444.334C273.67 444.334 283.449 444.894 283.449 444.894C283.449 444.894 286.22 433.934 286.302 433.694C286.383 433.454 290.784 425.294 290.947 424.973C291.192 424.733 296.978 419.533 297.467 419.053C298.2 419.053 303.661 419.053 303.661 419.053L309.284 405.213L311.647 396.573C311.647 396.573 303.009 390.653 302.357 390.093C302.275 389.213 300.808 374.652 300.808 374.412C300.89 374.172 302.194 366.892 302.275 366.092C303.009 365.692 310.018 361.532 310.018 361.532L316.456 355.772L313.033 343.292L306.921 337.291L305.698 338.571Z" fill="#E2F2E4"/>
<path d="M296.652 513.696L288.013 514.816L283.368 524.416L281.738 538.896L282.879 548.096C282.879 548.096 287.524 559.217 287.687 559.617C287.687 560.017 287.687 571.377 287.687 571.377H289.806V559.217C289.806 559.217 285.079 547.856 284.998 547.616C284.998 547.376 284.02 539.136 283.938 538.896C283.938 538.656 285.487 525.296 285.487 524.976C285.65 524.656 288.991 517.616 289.48 516.656C290.458 516.496 296.081 515.776 296.652 515.696C297.059 515.936 299.749 517.216 300.89 517.776C300.319 519.216 297.956 525.456 297.956 525.456L296.244 534.896L296.489 535.216C298.526 538.256 301.868 543.376 302.275 544.416C302.764 545.936 304.883 554.257 304.965 554.337L307.573 568.017L309.61 567.617L307.002 553.857C306.921 553.457 304.802 545.296 304.313 543.696C303.824 542.176 299.749 536.176 298.526 534.336C298.689 533.616 299.993 526.096 300.075 525.856C300.156 525.696 303.579 516.656 303.579 516.656L297.059 513.456L296.652 513.696Z" fill="#E2F2E4"/>
<path d="M281.982 444.254L290.051 454.814C290.051 454.814 301.379 465.374 301.705 465.774C301.868 466.174 304.394 473.775 304.72 474.575C304.313 475.295 301.623 479.615 301.623 479.615L301.053 486.095C301.053 486.095 305.046 490.495 305.454 490.895C305.535 491.455 306.432 498.175 306.432 498.415C306.432 498.575 305.943 508.655 305.943 509.135C305.698 509.535 301.216 516.816 301.216 516.816L303.009 517.856L307.98 509.775L308.551 498.335L307.41 490.015C307.41 490.015 303.742 485.935 303.172 485.375C303.253 484.655 303.579 480.655 303.661 480.255C303.905 479.855 307.002 474.815 307.002 474.815L303.579 464.654C303.579 464.654 291.762 453.614 291.681 453.454C291.599 453.294 283.694 442.974 283.694 442.974L281.982 444.254Z" fill="#E2F2E4"/>
<path d="M302.683 418.733L314.5 425.054C314.5 425.054 321.183 429.294 321.672 429.614C321.916 430.174 325.094 437.294 325.257 437.614C325.257 437.934 326.317 454.814 326.317 454.814C326.317 454.814 326.317 459.854 326.317 460.654C325.665 461.214 319.064 467.214 319.064 467.214L312.299 474.895V483.535L322.242 493.855C322.242 493.855 326.806 498.335 327.295 498.815C327.295 499.535 327.295 504.735 327.295 504.735H329.414V497.935L323.709 492.335C323.709 492.335 314.907 483.215 314.337 482.655C314.337 481.935 314.337 476.175 314.337 475.535C314.826 474.975 320.368 468.575 320.449 468.495C320.531 468.415 328.273 461.374 328.273 461.374V454.574L327.213 436.974L323.22 428.094L315.478 423.213L303.579 416.893L302.683 418.733Z" fill="#E2F2E4"/>
<path d="M354.352 479.375C354.026 479.695 347.588 486.015 347.588 486.015C347.588 486.015 342.535 489.935 342.372 490.095C342.209 490.175 327.947 497.455 327.947 497.455L328.925 499.295L343.513 491.855L348.973 487.615L356.226 480.495L357.938 475.535L355.901 474.895C355.819 474.895 354.434 478.975 354.352 479.375Z" fill="#E2F2E4"/>
<path d="M334.712 458.894L327.214 459.934L327.54 462.014C327.54 462.014 334.304 461.054 334.793 460.974C335.282 461.134 341.231 463.374 341.394 463.454C341.557 463.534 351.5 469.695 351.5 469.695L352.641 467.935L342.372 461.534L335.038 458.734L334.712 458.894Z" fill="#E2F2E4"/>
<path d="M345.55 402.573H338.297L336.423 410.413C336.423 410.413 337.238 416.253 337.401 417.293C336.504 417.853 333.163 420.093 333.163 420.093L326.724 423.774L321.834 428.014L323.22 429.534C323.22 429.534 327.784 425.534 327.947 425.374C328.11 425.294 334.304 421.773 334.304 421.773L339.764 418.253C339.764 418.253 338.705 410.813 338.623 410.413C338.705 410.093 339.682 405.773 340.008 404.573C341.231 404.573 344.735 404.573 345.224 404.573C345.713 404.973 351.663 409.453 351.826 409.533C351.989 409.693 356.797 414.973 356.797 414.973L366.414 417.773C366.414 417.773 369.511 417.453 370.896 417.293C371.059 419.133 371.874 430.414 371.874 430.414C371.874 430.414 372.934 445.694 372.934 446.014C372.852 446.334 370.815 453.214 370.815 453.214L372.852 453.774L375.052 446.254L373.993 430.254L372.852 414.973C372.852 414.973 366.984 415.533 366.658 415.613C366.332 415.533 358.59 413.293 358.019 413.133C357.612 412.733 353.293 408.013 353.293 408.013L345.958 402.493H345.55V402.573Z" fill="#E2F2E4"/>
<path d="M340.905 319.291L346.284 330.891L349.626 339.531L358.183 345.132C358.183 345.132 367.718 345.612 368.696 345.612C369.185 346.412 373.097 352.332 373.178 352.492C373.26 352.652 377.172 361.372 377.172 361.372C377.172 361.372 390.374 362.412 390.945 362.412C391.352 362.732 397.057 366.732 397.791 367.212C397.872 368.092 398.28 378.252 398.28 378.252C398.28 378.252 397.791 387.613 397.791 388.333C397.302 388.813 391.434 395.133 391.434 395.133C391.434 395.133 390.619 399.453 390.456 400.493C389.315 400.733 383.121 401.933 383.121 401.933L374.482 403.053L371.059 415.853L373.097 416.413C373.097 416.413 375.786 406.173 376.112 404.973C377.253 404.813 383.447 404.013 383.447 404.013L392.249 402.253C392.249 402.253 393.308 396.573 393.39 396.093C393.797 395.693 399.91 389.213 399.91 389.213L400.48 378.332L399.91 366.172L391.76 360.412C391.76 360.412 379.861 359.452 378.72 359.372C378.313 358.412 375.216 351.452 375.216 351.452L370.081 343.532C370.081 343.532 359.65 343.052 359.079 342.972C358.672 342.652 352.07 338.411 351.581 338.011C351.337 337.451 348.485 329.931 348.485 329.931L343.106 318.251L340.905 319.291Z" fill="#E2F2E4"/>
<path d="M342.698 318.011L347.018 322.251L355.738 329.691L364.947 335.291L371.548 331.771C371.548 331.771 376.927 325.051 377.335 324.491C377.987 324.331 388.907 322.011 389.152 321.931C389.478 321.931 403.659 322.891 404.229 322.971C404.718 323.291 418.002 332.811 418.002 332.811L431.123 339.291L440.984 339.851L441.066 337.771C441.066 337.771 432.02 337.291 431.612 337.291C431.205 337.131 419.143 331.211 418.98 331.131C418.817 331.051 404.881 320.971 404.881 320.971L388.907 319.851L376.031 322.571C376.031 322.571 370.326 329.771 370 330.091C369.674 330.251 365.681 332.411 364.866 332.891C363.969 332.331 357.042 328.091 356.879 328.011C356.716 327.931 348.322 320.731 348.322 320.731L344.084 316.571L342.698 318.011Z" fill="#E2F2E4"/>
<path d="M440.495 351.612C439.925 351.772 432.672 353.452 432.101 353.532C431.531 353.292 425.418 350.492 425.418 350.492L419.551 348.572L416.454 356.492C416.454 356.492 415.965 364.732 415.883 364.972C415.802 365.212 412.868 374.812 412.786 375.212C412.542 375.532 407.57 381.292 407.244 381.692C406.755 381.852 398.932 384.733 398.932 384.733L399.176 386.733C399.176 386.733 411.238 387.773 411.401 387.773C411.564 387.853 418.328 389.613 418.98 389.773C419.388 390.253 424.603 397.053 424.929 397.613C424.929 398.333 424.359 410.093 424.359 410.093L429.412 420.653L440.088 426.733L450.52 427.774L450.764 425.693C450.764 425.693 441.229 424.733 440.821 424.653C440.495 424.413 431.612 419.453 431.123 419.133C430.879 418.573 426.722 410.093 426.559 409.693C426.559 409.213 427.13 396.973 427.13 396.973L420.284 387.933L411.808 385.693C411.808 385.693 407.652 385.373 403.985 385.053C406.103 384.252 408.467 383.372 408.467 383.372L414.661 376.172L418.002 365.292C418.002 365.292 418.491 357.212 418.573 356.892C418.654 356.652 420.284 352.492 420.855 351.132C422.077 351.532 424.766 352.412 424.766 352.412L431.938 355.692L441.718 353.452L445.711 348.972L444.163 347.612C444 347.692 440.903 351.212 440.495 351.612Z" fill="#E2F2E4"/>
<path d="M435.02 144.191V144.192C435.02 144.193 435.021 144.194 435.021 144.195C435.023 144.197 435.026 144.2 435.029 144.205C435.036 144.214 435.047 144.228 435.061 144.246C435.087 144.281 435.127 144.334 435.177 144.401C435.278 144.535 435.422 144.728 435.597 144.96C435.945 145.423 436.414 146.046 436.893 146.681C437.631 147.661 438.38 148.652 438.76 149.149C438.99 149.185 439.306 149.236 439.678 149.297C440.428 149.419 441.412 149.581 442.391 149.744C443.369 149.907 444.343 150.07 445.071 150.192C445.436 150.253 445.739 150.304 445.951 150.339L446.262 150.391C446.269 150.392 446.275 150.394 446.278 150.394C446.28 150.394 446.281 150.395 446.282 150.395H446.284L446.334 150.404L446.383 150.417L453.799 152.451L454.483 152.638L454.532 153.346L455.185 162.865L455.193 163.003L455.166 163.137L455.165 163.138C455.165 163.139 455.165 163.14 455.165 163.141C455.164 163.144 455.163 163.15 455.162 163.156C455.159 163.168 455.155 163.187 455.15 163.212C455.14 163.26 455.125 163.332 455.106 163.423C455.069 163.606 455.014 163.867 454.949 164.18C454.819 164.807 454.647 165.643 454.474 166.481C454.3 167.32 454.127 168.161 453.997 168.797C453.932 169.114 453.879 169.38 453.842 169.568C453.824 169.656 453.81 169.724 453.801 169.773V169.809L453.771 169.929L451.851 177.597C451.851 177.602 451.851 177.607 451.852 177.612C451.856 177.717 451.863 177.873 451.872 178.07C451.89 178.464 451.916 179.027 451.946 179.703C452.007 181.055 452.088 182.861 452.17 184.672C452.319 187.975 452.469 191.357 452.492 191.964C452.494 191.979 452.498 192.001 452.502 192.03C452.511 192.095 452.525 192.19 452.543 192.311C452.578 192.553 452.628 192.896 452.689 193.305C452.812 194.124 452.975 195.21 453.138 196.293C453.301 197.375 453.464 198.456 453.586 199.265C453.647 199.67 453.698 200.007 453.733 200.243C453.751 200.361 453.766 200.454 453.775 200.517C453.78 200.548 453.784 200.572 453.786 200.589C453.787 200.596 453.788 200.603 453.789 200.607C453.789 200.609 453.79 200.611 453.79 200.612V200.614L453.844 200.969L453.658 201.278L453.414 201.685L449.758 207.793C449.751 207.83 449.744 207.872 449.735 207.92C449.7 208.113 449.649 208.39 449.588 208.723C449.466 209.389 449.303 210.278 449.14 211.172C448.977 212.067 448.814 212.966 448.692 213.65C448.631 213.993 448.581 214.28 448.546 214.485C448.539 214.528 448.531 214.567 448.525 214.601C448.528 214.608 448.531 214.616 448.533 214.624C448.581 214.772 448.65 214.984 448.734 215.239C448.903 215.749 449.13 216.427 449.359 217.114C449.623 217.903 449.902 218.742 450.098 219.338C450.474 219.32 450.972 219.297 451.552 219.269C452.8 219.208 454.427 219.127 456.041 219.046C457.655 218.964 459.258 218.883 460.456 218.822C461.055 218.791 461.553 218.765 461.901 218.748C462.075 218.739 462.212 218.732 462.306 218.727C462.352 218.725 462.388 218.723 462.412 218.721C462.424 218.721 462.433 218.721 462.439 218.72H462.447L462.511 218.716L462.573 218.721L471.375 219.372L471.905 219.412L472.169 219.873L472.495 220.442L472.5 220.452L472.506 220.461V220.462L472.507 220.463C472.507 220.464 472.508 220.465 472.509 220.467C472.511 220.472 472.516 220.479 472.521 220.488C472.53 220.506 472.545 220.532 472.563 220.567C472.601 220.636 472.656 220.738 472.727 220.867C472.867 221.125 473.067 221.494 473.308 221.937C473.789 222.823 474.431 224.006 475.073 225.191C475.715 226.376 476.358 227.565 476.84 228.463C477.081 228.911 477.283 229.289 477.425 229.558C477.495 229.692 477.553 229.802 477.594 229.881C477.614 229.92 477.633 229.958 477.648 229.99C477.655 230.004 477.666 230.028 477.677 230.053C477.678 230.057 477.68 230.063 477.683 230.07L481.011 237.279L481.077 237.423L481.096 237.581L482.645 250.76L482.676 251.031L482.566 251.28L482.565 251.282C482.565 251.283 482.564 251.286 482.562 251.289C482.56 251.294 482.556 251.302 482.552 251.313C482.542 251.335 482.528 251.367 482.51 251.409C482.473 251.493 482.419 251.616 482.35 251.773C482.211 252.087 482.014 252.536 481.777 253.074C481.304 254.15 480.672 255.587 480.041 257.025C479.41 258.464 478.778 259.904 478.305 260.99C478.068 261.533 477.871 261.985 477.734 262.304C477.678 262.436 477.633 262.543 477.599 262.624V262.665L477.494 262.875L471.789 274.345L471.659 274.607L471.408 274.757L460.569 281.266L460.525 281.293L460.479 281.314H460.478L460.477 281.315C460.475 281.316 460.473 281.317 460.471 281.318C460.466 281.32 460.458 281.324 460.448 281.329C460.429 281.338 460.399 281.351 460.361 281.369C460.285 281.405 460.172 281.457 460.029 281.524C459.744 281.658 459.336 281.848 458.846 282.078C457.865 282.537 456.556 283.15 455.242 283.765C453.928 284.38 452.609 284.997 451.608 285.466C451.108 285.701 450.687 285.899 450.387 286.04C450.352 286.056 450.319 286.071 450.288 286.086C450.273 286.135 450.257 286.19 450.24 286.248C450.137 286.595 449.994 287.079 449.824 287.652C449.484 288.799 449.038 290.307 448.595 291.807C448.152 293.307 447.712 294.799 447.382 295.917C447.217 296.475 447.079 296.94 446.983 297.265C446.935 297.428 446.898 297.555 446.872 297.642C446.859 297.686 446.849 297.719 446.843 297.742C446.839 297.753 446.837 297.762 446.835 297.767C446.834 297.77 446.834 297.773 446.834 297.774L446.833 297.775V297.776L446.732 298.116L446.441 298.316L434.868 306.289L434.527 306.524L434.121 306.449L426.134 304.985L425.994 304.96L425.867 304.896L425.705 304.814L425.692 304.808L425.68 304.801L416.65 299.973L400.95 295.692L400.694 295.622L400.507 295.434L400.262 295.19L394.172 289.11L385.24 284.297L367.398 281.477L367.017 281.418L366.774 281.115L366.448 280.709L366.434 280.691L366.421 280.672L361.02 273.27L361.019 273.269C360.969 273.225 360.899 273.161 360.814 273.084C360.645 272.93 360.418 272.723 360.188 272.514C359.899 272.251 359.585 271.963 359.386 271.78C359.34 271.767 359.285 271.752 359.223 271.735C358.976 271.669 358.623 271.577 358.198 271.468C357.35 271.252 356.224 270.971 355.099 270.691C353.974 270.412 352.852 270.134 352.011 269.927C351.59 269.824 351.239 269.739 350.994 269.678C350.872 269.648 350.776 269.624 350.71 269.608C350.677 269.6 350.652 269.594 350.635 269.589C350.627 269.587 350.62 269.586 350.616 269.585C350.614 269.584 350.612 269.584 350.611 269.584H350.609L350.09 269.457L349.907 268.954L347.218 261.55L347.169 261.415L347.16 261.27L346.508 250.613V250.61L345.867 239.672L342.63 233.287L337.251 223.199L337.037 222.798L337.199 222.373L340.54 213.587L340.617 213.386L340.769 213.235L340.906 213.096L345.888 207.493C345.894 207.475 345.901 207.456 345.908 207.435C345.962 207.275 346.038 207.046 346.13 206.771C346.313 206.221 346.557 205.486 346.802 204.75C347.046 204.013 347.29 203.275 347.473 202.716C347.564 202.437 347.639 202.204 347.691 202.04C347.703 202.004 347.712 201.971 347.721 201.943C347.715 201.848 347.708 201.698 347.695 201.485C347.673 201.099 347.641 200.555 347.603 199.907C347.526 198.611 347.425 196.897 347.323 195.189C347.221 193.481 347.119 191.777 347.043 190.501C347.005 189.863 346.972 189.331 346.95 188.96C346.939 188.774 346.931 188.627 346.925 188.528C346.922 188.478 346.92 188.44 346.918 188.415C346.917 188.402 346.916 188.392 346.916 188.385C346.916 188.382 346.915 188.38 346.915 188.379V188.376L346.889 187.926L347.207 187.608L347.614 187.202L347.645 187.172L347.678 187.144C348.302 186.619 349.162 185.423 350.28 183.518C351.375 181.654 352.648 179.236 354.115 176.387C355.175 174.312 356.099 172.548 356.863 171.197C357.604 169.889 358.258 168.848 358.779 168.328C359.756 167.353 361.724 166.19 363.523 165.216C365.366 164.22 367.204 163.332 368.004 162.933L368.819 162.527L369.51 162.182L370.018 162.762L370.589 163.414L370.594 163.419C370.596 163.421 370.599 163.426 370.604 163.431C370.613 163.442 370.627 163.457 370.646 163.478C370.682 163.52 370.735 163.581 370.803 163.659C370.939 163.814 371.134 164.037 371.367 164.303C371.834 164.837 372.457 165.548 373.083 166.259C373.709 166.971 374.336 167.68 374.811 168.211C375.026 168.452 375.209 168.653 375.344 168.8C375.827 168.843 376.642 168.901 377.824 168.83C379.446 168.732 381.378 168.383 382.93 167.447C383.477 167.111 384.418 166.354 385.669 165.246C386.904 164.151 388.391 162.759 390.005 161.198C393.233 158.077 396.951 154.304 400.163 150.935L400.425 150.673L400.621 150.478L400.89 150.411L401.205 150.332H401.206L401.241 150.323C401.266 150.316 401.303 150.307 401.351 150.295C401.446 150.27 401.586 150.233 401.765 150.186C402.121 150.093 402.631 149.959 403.243 149.798C404.467 149.478 406.099 149.051 407.734 148.624C409.37 148.197 411.008 147.769 412.243 147.449C412.86 147.289 413.377 147.155 413.743 147.061C413.926 147.014 414.072 146.978 414.175 146.952C414.226 146.939 414.269 146.928 414.302 146.921C414.317 146.917 414.335 146.912 414.352 146.909C414.359 146.907 414.373 146.904 414.39 146.901C414.391 146.901 414.392 146.9 414.394 146.9L425.337 144.841L425.526 144.653L425.791 144.389L426.164 144.364L433.232 143.878L434.129 143.796L434.685 143.746L435.02 144.191ZM452.497 192.058C452.497 192.024 452.496 191.998 452.495 191.991C452.494 191.98 452.494 191.972 452.493 191.967L452.492 191.965C452.494 192.018 452.497 192.049 452.497 192.058ZM375.019 168.776C375.009 168.775 375 168.773 374.99 168.772L374.89 168.767C374.923 168.767 374.966 168.772 375.019 168.776Z" fill="white" stroke="#E2F2E4" stroke-width="2"/>
<path d="M385.605 231.13H394.709V227.226H387.269V225.946H396.293V231.13H398.437V232.41H385.605V231.13ZM387.493 234.138H396.469V239.466H387.493V234.138ZM394.917 235.386H389.045V238.202H394.917V235.386ZM407.02 228.778H409.468V225.466H411.036V233.834H409.468V230.058H407.02V228.778ZM400.908 232.89L399.82 231.93L402.22 229.226C402.716 228.666 402.844 228.202 402.844 227.754V227.402H400.076V226.122H406.972V227.402H404.332V227.754C404.332 228.218 404.444 228.65 404.956 229.226L407.356 231.93L406.268 232.89L403.868 230.186L403.58 229.834L403.308 230.186L400.908 232.89ZM406.828 239.882C404.748 239.882 403.308 238.618 403.308 236.842C403.308 235.066 404.748 233.802 406.828 233.802C408.908 233.802 410.364 235.066 410.364 236.842C410.364 238.618 408.908 239.882 406.828 239.882ZM406.828 238.602C408.012 238.602 408.844 237.882 408.844 236.842C408.844 235.802 408.012 235.098 406.828 235.098C405.644 235.098 404.828 235.802 404.828 236.842C404.828 237.882 405.644 238.602 406.828 238.602ZM413.043 232.65H422.259V227.578H414.467V226.282H423.843V232.65H425.859V233.946H420.211V239.658H418.611V233.946H413.043V232.65Z" fill="#4E4D6B"/>
<path d="M343.309 360.576C351.211 360.576 357.617 358.311 357.617 355.518C357.617 352.724 351.211 350.459 343.309 350.459C335.406 350.459 329 352.724 329 355.518C329 358.311 335.406 360.576 343.309 360.576Z" fill="url(#paint0_linear_26_1918)"/>
<path d="M357.184 330.947C357.184 338.607 343.236 355.445 343.236 355.445C343.236 355.445 329.361 338.68 329.361 330.947C329.361 323.215 335.576 317 343.309 317C351.041 317 357.184 323.287 357.184 330.947Z" fill="url(#paint1_linear_26_1918)"/>
<path d="M343.309 335.861C346.102 335.861 348.367 333.597 348.367 330.803C348.367 328.009 346.102 325.744 343.309 325.744C340.515 325.744 338.25 328.009 338.25 330.803C338.25 333.597 340.515 335.861 343.309 335.861Z" fill="white"/>
</g>
<defs>
<filter id="filter0_d_26_1918" x="-1" y="6.63907" width="713.695" height="684.359" filterUnits="userSpaceOnUse" color-interpolation-filters="sRGB">
<feFlood flood-opacity="0" result="BackgroundImageFix"/>
<feColorMatrix in="SourceAlpha" type="matrix" values="0 0 0 0 0 0 0 0 0 0 0 0 0 0 0 0 0 0 127 0" result="hardAlpha"/>
<feOffset dx="5" dy="5"/>
<feGaussianBlur stdDeviation="3"/>
<feComposite in2="hardAlpha" operator="out"/>
<feColorMatrix type="matrix" values="0 0 0 0 0 0 0 0 0 0 0 0 0 0 0 0 0 0 0.2 0"/>
<feBlend mode="normal" in2="BackgroundImageFix" result="effect1_dropShadow_26_1918"/>
<feBlend mode="normal" in="SourceGraphic" in2="effect1_dropShadow_26_1918" result="shape"/>
</filter>
<linearGradient id="paint0_linear_26_1918" x1="343.309" y1="350.459" x2="350.427" y2="360.576" gradientUnits="userSpaceOnUse">
<stop stop-color="#FFE797"/>
<stop offset="1" stop-color="#F2C226"/>
</linearGradient>
<linearGradient id="paint1_linear_26_1918" x1="335.432" y1="331.598" x2="347.355" y2="346.412" gradientUnits="userSpaceOnUse">
<stop stop-color="#FFCD42"/>
<stop offset="1" stop-color="#FFB845"/>
</linearGradient>
<clipPath id="clip0_26_1918">
<rect width="710" height="689" fill="white"/>
</clipPath>
</defs>
</svg>
